<?xml version="1.0" encoding="UTF-8" standalone="no"?>
<!-- Created with Inkscape (http://www.inkscape.org/) -->

<svg
   xmlns:dc="http://purl.org/dc/elements/1.1/"
   xmlns:cc="http://creativecommons.org/ns#"
   xmlns:rdf="http://www.w3.org/1999/02/22-rdf-syntax-ns#"
   xmlns:svg="http://www.w3.org/2000/svg"
   xmlns="http://www.w3.org/2000/svg"
   xmlns:sodipodi="http://sodipodi.sourceforge.net/DTD/sodipodi-0.dtd"
   xmlns:inkscape="http://www.inkscape.org/namespaces/inkscape"
   width="23.594667"
   height="24.357784"
   id="svg2985"
   version="1.1"
   inkscape:version="0.48.4 r9939"
   sodipodi:docname="jsu.svg">
  <defs
     id="defs2987" />
  <sodipodi:namedview
     id="base"
     pagecolor="#ffffff"
     bordercolor="#666666"
     borderopacity="1.0"
     inkscape:pageopacity="0.0"
     inkscape:pageshadow="2"
     inkscape:zoom="5.5"
     inkscape:cx="13.712963"
     inkscape:cy="5.2225981"
     inkscape:current-layer="layer1"
     showgrid="true"
     inkscape:document-units="px"
     inkscape:grid-bbox="true"
     inkscape:window-width="826"
     inkscape:window-height="621"
     inkscape:window-x="176"
     inkscape:window-y="266"
     inkscape:window-maximized="0"
     inkscape:snap-global="false"
     fit-margin-top="1"
     fit-margin-left="1"
     fit-margin-right="1"
     fit-margin-bottom="1" />
  <metadata
     id="metadata2990">
    <rdf:RDF>
      <cc:Work
         rdf:about="">
        <dc:format>image/svg+xml</dc:format>
        <dc:type
           rdf:resource="http://purl.org/dc/dcmitype/StillImage" />
      </cc:Work>
    </rdf:RDF>
  </metadata>
  <g
     id="layer1"
     inkscape:label="Layer 1"
     inkscape:groupmode="layer"
     transform="translate(-18.287037,-12.864812)">
    <path
       style="fill:#000000;fill-opacity:1;fill-rule:nonzero;stroke:none"
       id="path3005"
       d="m 20.159679,13.864812 c 0.653896,0.0131 1.308013,0.01249 1.962019,0.01478 1.126163,0.0041 2.252326,0.007 3.378496,0.0073 1.087114,9.49e-4 2.174219,-0.0036 3.261324,-0.007 0.829691,-0.0035 1.659388,-0.0012 2.489082,-0.0012 0.917173,0.0025 1.834342,0.0024 2.751516,7.52e-4 0.791136,-0.0013 1.582273,-0.0034 2.373409,-0.002 0.708004,0.0046 1.415993,-0.0047 2.123992,-0.0036 0.674804,0.02908 1.359957,-0.06447 2.024251,0.08024 0.374796,0.164199 0.382002,0.534879 0.341356,0.891599 -0.116437,0.544755 -0.341534,1.055483 -0.543295,1.57206 -0.272484,0.691108 -0.592704,1.36181 -0.915458,2.030446 -0.387246,0.730921 -0.686249,1.502121 -0.954239,2.283379 -0.241284,0.772701 -0.549243,1.520651 -0.880875,2.258177 -0.325703,0.760147 -0.73143,1.477804 -1.147404,2.190812 -0.411172,0.677353 -0.843842,1.336791 -1.377374,1.923828 -0.689198,0.677204 -1.507991,1.216969 -2.403224,1.586976 -0.392451,0.144776 -0.808962,0.166683 -1.222528,0.175404 -0.550874,0.03172 -1.029811,-0.1638 -1.464919,-0.485113 -0.49826,-0.451536 -0.534688,-0.984093 -0.434307,-1.610199 0.150812,-0.724249 0.657656,-1.195555 1.254375,-1.580966 1.115549,-0.686327 1.755172,-0.938581 3.001576,-0.92214 0.75909,0.06192 1.058918,0.437341 1.278185,1.122982 0.162292,0.831849 0.154638,1.688301 0.119122,2.531736 -0.06736,1.223721 -0.582327,2.341657 -1.096983,3.432496 -0.647255,1.415863 -1.568787,2.66451 -2.547721,3.864244 -0.200065,0.210133 -0.400131,0.420267 -0.600196,0.6304 0,0 -0.89391,0.372392 -0.89391,0.372392 l 0,0 c 0.201313,-0.207837 0.402626,-0.415673 0.603939,-0.62351 0.971731,-1.190201 1.886929,-2.429253 2.533634,-3.831887 0.506712,-1.075932 1.018159,-2.177975 1.089102,-3.384159 0.03425,-0.828851 0.03305,-1.670539 -0.125068,-2.487766 -0.206757,-0.655038 -0.482672,-0.97128 -1.203765,-1.014494 -0.476206,0.0025 -0.949519,0.04501 -1.409464,0.177845 -0.115359,0.03332 -0.421434,0.205622 -0.340812,0.11664 0.149373,-0.164863 0.374469,-0.240292 0.561704,-0.360439 -0.592897,0.353471 -1.116161,0.797828 -1.284241,1.497752 -0.101752,0.561772 -0.08262,1.105588 0.382926,1.505506 0.429367,0.306987 0.90329,0.463633 1.436442,0.420577 0.404842,-0.01336 0.811074,-0.04529 1.190189,-0.201517 0.385047,-0.173918 0.526269,-0.248015 -0.416102,0.279689 -0.09088,0.05089 0.17755,-0.109198 0.262927,-0.168867 0.186522,-0.130359 0.34471,-0.262988 0.515623,-0.412795 0.08527,-0.07474 0.168172,-0.152149 0.252258,-0.228223 0.543802,-0.577944 0.986107,-1.228318 1.396012,-1.907255 0.414833,-0.71036 0.825028,-1.42221 1.14955,-2.179978 0.333185,-0.734641 0.645179,-1.479064 0.886384,-2.24981 0.265272,-0.784254 0.559514,-1.560675 0.946814,-2.293775 0.320654,-0.664324 0.639151,-1.330622 0.908174,-2.017967 0.195728,-0.508414 0.415924,-1.009123 0.539107,-1.541813 0.04329,-0.296636 0.07061,-0.628107 -0.254465,-0.759704 -0.658159,-0.135985 -1.337908,-0.04425 -2.005174,-0.06679 -0.704663,0.0011 -1.409316,-0.0082 -2.113985,-0.0036 -0.789262,0.0014 -1.578525,-7.43e-4 -2.367786,-0.002 -0.917864,-0.0017 -1.835724,-0.0018 -2.753587,7.52e-4 -0.828607,5.9e-5 -1.657217,0.0023 -2.48582,-0.0012 -1.080663,-0.0035 -2.161325,-0.008 -3.241997,-0.007 -1.132913,3.86e-4 -2.265818,0.0032 -3.398723,0.0073 -0.66757,0.0023 -1.335241,0.0019 -2.002708,0.01478 0,0 0.872642,-0.634012 0.872642,-0.634012 z"
       inkscape:connector-curvature="0" />
    <path
       style="fill:#000000;fill-opacity:1;fill-rule:nonzero;stroke:none"
       id="path3009"
       d="m 32.190338,22.434366 c -0.256354,-0.151481 -0.602868,-0.401637 -0.467155,-0.735416 1.079514,-0.568209 0.682052,-0.705608 1.160047,-0.495967 0,0 -0.888836,0.605563 -0.888836,0.605563 l 0,0 c -0.406613,-0.05878 -0.115184,0.0032 0.722581,-0.526105 -0.317899,0.115654 0.234046,0.510082 0.373244,0.559835 0,0 -0.899881,0.59209 -0.899881,0.59209 z"
       inkscape:connector-curvature="0" />
  </g>
</svg>
